<svg width="200" height="60" viewBox="0 0 200 60" fill="none" xmlns="http://www.w3.org/2000/svg">
  <defs>
    <linearGradient id="spotifyGradient" x1="0%" y1="0%" x2="100%" y2="0%">
      <stop offset="0%" style="stop-color:#1DB954;stop-opacity:1" />
      <stop offset="100%" style="stop-color:#1ed760;stop-opacity:1" />
    </linearGradient>
    <linearGradient id="textGradient" x1="0%" y1="0%" x2="100%" y2="0%">
      <stop offset="0%" style="stop-color:#1DB954;stop-opacity:1" />
      <stop offset="50%" style="stop-color:#1ed760;stop-opacity:1" />
      <stop offset="100%" style="stop-color:#1DB954;stop-opacity:0.8" />
    </linearGradient>
  </defs>
  
  <!-- Spotify Icon -->
  <circle cx="30" cy="30" r="20" fill="url(#spotifyGradient)"/>
  <path d="M20 30C20 25 22 20.5 25.5 18L24 15.5C19.5 18.5 16 24 16 30C16 36 19.5 41.5 24 44.5L25.5 42C22 39.5 20 35 20 30Z" fill="white"/>
  <path d="M25 30C25 27.5 26.5 25.5 28.5 24.5L27.5 22.5C24.5 24 22.5 27 22.5 30C22.5 33 24.5 36 27.5 37.5L28.5 35.5C26.5 34.5 25 32.5 25 30Z" fill="white"/>
  <path d="M28 30C28 29 28.5 28.5 29 28.5L28.5 26.5C27.5 26.5 26.5 27.5 26.5 30C26.5 32.5 27.5 33.5 28.5 33.5L29 31.5C28.5 31.5 28 30.5 28 30Z" fill="white"/>
  
  <!-- Text "Token Generator" -->
  <text x="60" y="25" font-family="system-ui, -apple-system, sans-serif" font-size="18" font-weight="700" fill="url(#textGradient)">
    Token Generator
  </text>
  <text x="60" y="42" font-family="system-ui, -apple-system, sans-serif" font-size="12" font-weight="500" fill="#1DB954" opacity="0.8">
    Spotify Refresh Token
  </text>
</svg>
